<?xml version="1.0" encoding="UTF-8"?>
<svg xmlns="http://www.w3.org/2000/svg" width="280" height="220" viewBox="0 0 280 220" role="img" aria-label="Barcelona Recovery Care">
  <defs>
    <linearGradient id="aqua" x1="0" x2="1" y1="0" y2="1">
      <stop offset="0" stop-color="#62B6CF"/>
      <stop offset="1" stop-color="#4FAAC6"/>
    </linearGradient>
  </defs>

  <!-- Cross (rounded, similar to original) -->
  <g transform="translate(12,18)">
    <rect x="0" y="54" width="120" height="78" rx="14" fill="url(#aqua)"/>
    <rect x="42" y="0" width="82" height="164" rx="14" fill="url(#aqua)"/>

    <!-- Dark base column (like original) -->
    <path d="M58,62 C84,48 104,38 124,28 L124,170 L58,170 Z" fill="#1F2F57"/>

    <!-- White spires (Sagrada-like) -->
    <g transform="translate(70,38)">
      <path d="M12 120 L18 120 L22 20 Q22 12 18 10 Q14 12 14 20 Z" fill="#ffffff"/>
      <path d="M34 120 L40 120 L46 0  Q46 -8 42 -10 Q38 -8 38 0 Z" fill="#ffffff"/>
      <path d="M56 120 L62 120 L66 28 Q66 20 62 18 Q58 20 58 28 Z" fill="#ffffff"/>
      <path d="M78 120 L84 120 L90 10 Q90 2 86 0 Q82 2 82 10 Z" fill="#ffffff"/>
      <!-- small navy accents behind -->
      <path d="M0 120 L8 120 L12 40 Q12 32 8 30 Q4 32 4 40 Z" fill="#1F2F57" opacity="0.9"/>
      <path d="M96 120 L104 120 L108 54 Q108 46 104 44 Q100 46 100 54 Z" fill="#1F2F57" opacity="0.9"/>
    </g>
  </g>
</svg>
